<svg id="OG" xmlns="http://www.w3.org/2000/svg" viewBox="0 0 61.03 58.31"><defs><style>.cls-1{fill:#4c6b8b;}</style></defs><g id="Electric_Buses_Icon" data-name="Electric Buses Icon"><path class="cls-1" d="M10.49,40.6A2.58,2.58,0,1,0,13.06,38a2.57,2.57,0,0,0-2.57,2.58"/><path class="cls-1" d="M36.64,40.6A2.58,2.58,0,1,0,39.22,38a2.57,2.57,0,0,0-2.58,2.58"/><path class="cls-1" d="M47.25,36.86h-.39a1.44,1.44,0,0,0-1.45,1.44V53.35A1.69,1.69,0,0,1,43.73,55H42.54a1.68,1.68,0,0,1-1.68-1.68V51.18a5,5,0,0,0-5-5H16.39a5,5,0,0,0-5,5v2.17A1.68,1.68,0,0,1,9.74,55H8.55a1.69,1.69,0,0,1-1.68-1.68V37.84A1.65,1.65,0,0,1,8.51,36.2H44V15.85a4.93,4.93,0,0,0-4.92-4.92H17.37A4.37,4.37,0,0,0,13,6.26H8.82a1.64,1.64,0,0,0-3.28,0V8H1.64a1.64,1.64,0,0,0,0,3.28h3.9V14H1.64a1.64,1.64,0,0,0,0,3.28h3.9v1.68a1.64,1.64,0,0,0,3.28,0H13c2.84,0,4.4-2.21,4.4-4.69H31.74v0h7.32a1.65,1.65,0,0,1,1.64,1.64V32.92H8.51a4.94,4.94,0,0,0-4.92,4.84V53.35a5,5,0,0,0,5,5H9.74a5,5,0,0,0,5-5V51.18a1.69,1.69,0,0,1,1.69-1.68h19.5a1.68,1.68,0,0,1,1.68,1.68v2.17a5,5,0,0,0,5,5h1.19a5,5,0,0,0,5-5V38.3a1.44,1.44,0,0,0-1.44-1.44"/><path class="cls-1" d="M58.49,9H53.68a2.54,2.54,0,0,0-2.54,2.54v1.42H49.63V11c0-3.39-5.53-6.4-7.22-7.24A38.4,38.4,0,0,0,25.61,0,39.32,39.32,0,0,0,13.13,2,1.8,1.8,0,0,0,12,4.29a1.75,1.75,0,0,0,1.21,1.14,1.71,1.71,0,0,0,1,0A34.45,34.45,0,0,1,25.62,3.52,34.58,34.58,0,0,1,40.84,6.9C44.59,8.77,46,10.6,46.11,11v3.27a2.19,2.19,0,0,0,2.19,2.19h2.84v4.09a2.54,2.54,0,0,0,2.54,2.54h4.81A2.54,2.54,0,0,0,61,20.54v-9A2.54,2.54,0,0,0,58.49,9m.12,11.2H53.73V11.91h4.88Z"/></g></svg>