<svg id="OG" xmlns="http://www.w3.org/2000/svg" viewBox="0 0 59.61 59.61"><defs><style>.cls-1{fill:#f6772d;}</style></defs><path class="cls-1" d="M40.56,38.68c0-5.66-3.39-7.34-8.52-9.87l-2.81-1.39c-5.09-2.51-6.42-3.3-6.42-6.49,0-4.11,3.61-5.57,7-5.57,1.61,0,6.87.4,6.87,5.57a1.88,1.88,0,0,0,3.76,0c0-4.72-3.07-8.1-7.85-9V9.1a1.88,1.88,0,0,0-3.76,0v2.56c-5.87.38-9.77,4-9.77,9.27,0,5.66,3.38,7.33,8.51,9.86l2.82,1.4c5.09,2.51,6.42,3.3,6.42,6.49,0,5.11-5.36,5.51-7,5.51s-7-.4-7-5.51a1.88,1.88,0,1,0-3.76,0c0,5.25,3.9,8.83,9.77,9.2v2.63a1.89,1.89,0,0,0,3.77,0V47.67c4.85-.93,8-4.29,8-9Z"/><path class="cls-1" d="M29.8,59.61A29.81,29.81,0,1,1,59.61,29.8,29.84,29.84,0,0,1,29.8,59.61Zm0-57A27.22,27.22,0,1,0,57,29.8,27.25,27.25,0,0,0,29.8,2.59Z"/></svg>