<svg id="OG" xmlns="http://www.w3.org/2000/svg" viewBox="0 0 88.02 58.22"><defs><style>.cls-1{fill:none;}.cls-2{fill:#d9e100;}</style></defs><path class="cls-1" d="M11.58,48.12l30.58,6v-44l-30.58-6ZM16,13.38A1.9,1.9,0,0,1,18.25,12l18.07,3.52a1.8,1.8,0,0,1,1.48,2.13A2,2,0,0,1,36,19.12h-.37L17.51,15.6A1.89,1.89,0,0,1,16,13.38Zm0,9.17a1.8,1.8,0,0,1,2.13-1.48l18.07,3.52a1.93,1.93,0,0,1,1.57,2.13A2,2,0,0,1,36,28.2h-.37L17.51,24.68A1.8,1.8,0,0,1,16,22.55Zm0,9a1.82,1.82,0,0,1,2.13-1.49l18.07,3.53a2,2,0,0,1,1.57,2.13A2,2,0,0,1,36,37.19h-.37L17.51,33.67A1.8,1.8,0,0,1,16,31.54Zm0,9.08a1.82,1.82,0,0,1,2.13-1.49l18.07,3.53A1.81,1.81,0,0,1,36,46.27h-.37L17.51,42.75A1.8,1.8,0,0,1,16,40.62Z"/><path class="cls-1" d="M7.88,49.7V12.26H3.71V54.61H25L9.36,51.55A1.88,1.88,0,0,1,7.88,49.7Z"/><path class="cls-1" d="M80.15,49.6a1.9,1.9,0,0,1-1.48,1.86L63,54.52H84.32V12.26H80.15Z"/><path class="cls-1" d="M76.44,4.11l-30.57,6v44l30.57-6ZM70.6,42.75,52.54,46.27h-.37a1.82,1.82,0,0,1-1.86-1.48,1.86,1.86,0,0,1,1.49-2.13l18.06-3.53a2,2,0,0,1,2.23,1.49A1.87,1.87,0,0,1,70.6,42.75Zm0-9.08L52.54,37.19h-.37a1.82,1.82,0,0,1-1.86-1.48,1.86,1.86,0,0,1,1.49-2.13l18.06-3.53a2,2,0,0,1,2.23,1.49A1.87,1.87,0,0,1,70.6,33.67Zm0-9.08L52.54,28.11h-.37a1.82,1.82,0,0,1-1.86-1.48,1.87,1.87,0,0,1,1.49-2.14L69.86,21a2,2,0,0,1,2.23,1.49A1.87,1.87,0,0,1,70.6,24.59Zm0-9L52.54,19.12h-.37a1.82,1.82,0,0,1-1.86-1.48,1.86,1.86,0,0,1,1.49-2.13L69.86,12a2,2,0,0,1,2.23,1.48A1.86,1.86,0,0,1,70.6,15.6Z"/><path class="cls-2" d="M17.51,24.68,35.58,28.2H36a2,2,0,0,0,1.85-1.48,1.93,1.93,0,0,0-1.57-2.13L18.16,21.07a1.83,1.83,0,1,0-.65,3.61Z"/><path class="cls-2" d="M69.86,21,51.8,24.49a1.87,1.87,0,0,0-1.49,2.14,1.82,1.82,0,0,0,1.86,1.48h.37L70.6,24.59a1.87,1.87,0,0,0,1.49-2.13A2,2,0,0,0,69.86,21Z"/><path class="cls-2" d="M17.51,33.67l18.07,3.52H36a2,2,0,0,0,1.85-1.48,2,2,0,0,0-1.57-2.13L18.16,30.05a1.84,1.84,0,0,0-.65,3.62Z"/><path class="cls-2" d="M69.86,12,51.8,15.51a1.86,1.86,0,0,0-1.49,2.13,1.82,1.82,0,0,0,1.86,1.48h.37L70.6,15.6a1.86,1.86,0,0,0,1.49-2.13A2,2,0,0,0,69.86,12Z"/><path class="cls-2" d="M17.51,15.6l18.07,3.52H36a2,2,0,0,0,1.85-1.48,1.8,1.8,0,0,0-1.48-2.13L18.25,12a1.84,1.84,0,1,0-.74,3.61Z"/><path class="cls-2" d="M69.86,30.05,51.8,33.58a1.86,1.86,0,0,0-1.49,2.13,1.82,1.82,0,0,0,1.86,1.48h.37L70.6,33.67a1.87,1.87,0,0,0,1.49-2.13A2,2,0,0,0,69.86,30.05Z"/><path class="cls-2" d="M69.86,39.13,51.8,42.66a1.86,1.86,0,0,0-1.49,2.13,1.82,1.82,0,0,0,1.86,1.48h.37L70.6,42.75a1.87,1.87,0,0,0,1.49-2.13A2,2,0,0,0,69.86,39.13Z"/><path class="cls-2" d="M86.17,8.56h-6V1.89A1.8,1.8,0,0,0,79.5.5,1.92,1.92,0,0,0,77.92.13L44,6.7,10.1,0A2,2,0,0,0,8.52.4a2.19,2.19,0,0,0-.64,1.49V8.56h-6A1.85,1.85,0,0,0,0,10.41v46a1.85,1.85,0,0,0,1.85,1.85H86.17A1.85,1.85,0,0,0,88,56.37v-46A1.85,1.85,0,0,0,86.17,8.56ZM3.71,54.61V12.26H7.88V49.7a1.88,1.88,0,0,0,1.48,1.85L25,54.61Zm38.45-.46-30.58-6v-44l30.58,6Zm3.71-44,30.57-6v44l-30.57,6ZM84.32,54.52H63l15.66-3.06a1.9,1.9,0,0,0,1.48-1.86V12.26h4.17Z"/><path class="cls-2" d="M17.51,42.75l18.07,3.52H36a1.81,1.81,0,0,0,.28-3.61L18.16,39.13a1.84,1.84,0,0,0-.65,3.62Z"/></svg>